Coordinates
version=1
nRows=11
nColumns=40
inDegrees=yes

Units are S.I. units (second, meters, Newtons, ...)
Angles are in degrees.

endheader
time	pelvis_tilt	pelvis_list	pelvis_rotation	pelvis_tx	pelvis_ty	pelvis_tz	hip_flexion_r	hip_adduction_r	hip_rotation_r	knee_angle_r	knee_angle_r_beta	ankle_angle_r	subtalar_angle_r	mtp_angle_r	hip_flexion_l	hip_adduction_l	hip_rotation_l	knee_angle_l	knee_angle_l_beta	ankle_angle_l	subtalar_angle_l	mtp_angle_l	lumbar_extension	lumbar_bending	lumbar_rotation	arm_flex_r	arm_add_r	arm_rot_r	elbow_flex_r	pro_sup_r	wrist_flex_r	wrist_dev_r	arm_flex_l	arm_add_l	arm_rot_l	elbow_flex_l	pro_sup_l	wrist_flex_l	wrist_dev_l
     16.01000000	     -2.01992051	     -5.57498039	      6.59633774	      1.12075923	      0.93290247	      0.46807063	     10.06997311	      3.39229731	    -19.23992942	     16.21643019	     16.21643019	      9.64444005	     -2.92016606	     -3.98780709	     29.38177317	    -12.64956762	      1.19232316	     62.75661102	     62.75661102	     13.07041451	    -19.03477908	     16.13420159	     -9.78222275	      7.61439308	      4.15747013	      9.06753506	    -15.45354185	     -7.64993931	     33.52011988	     45.86747003	      0.00000000	      0.00000000	      8.61844433	     -8.17392251	      2.98144494	     54.02111279	     46.14930563	      0.00000000	      0.00000000
     16.02114286	     -2.08430857	     -5.50590957	      6.89154936	      1.11927880	      0.93291755	      0.46821325	      9.39458893	      3.46634840	    -19.26799490	     15.85459980	     15.85459980	      9.96482236	     -3.01882118	     -4.02217898	     30.78744738	    -12.38341730	      1.11731562	     60.68931033	     60.68931033	     13.00045417	    -19.03578767	     16.22617988	     -9.86300018	      7.40759224	      4.22584540	     11.53629130	    -15.86116972	     -7.76348804	     34.85638592	     45.84067032	      0.00000000	      0.00000000	      6.97575926	     -8.09745933	      3.27264870	     52.45504255	     46.09604680	      0.00000000	      0.00000000
     16.03228571	     -2.04196651	     -5.51127244	      7.24527964	      1.11795281	      0.93306220	      0.46833147	      8.51358286	      3.67191689	    -19.39996375	     15.27912610	     15.27912610	     10.16104113	     -3.07948766	     -4.26591973	     31.84783246	    -12.17297702	      1.06457171	     58.24182359	     58.24182359	     12.52597606	    -19.00814528	     15.66754080	     -9.92328638	      7.37410782	      4.09221360	     13.80303191	    -16.26621032	     -7.17274087	     37.04451043	     45.74200498	      0.00000000	      0.00000000	      6.74869375	     -7.68957031	      3.39646799	     46.69149500	     46.06331887	      0.00000000	      0.00000000
     16.04342857	     -2.01675422	     -5.46094622	      7.54935830	      1.11664775	      0.93306421	      0.46840353	      7.68369998	      3.80320258	    -19.50136800	     14.78565396	     14.78565396	     10.46656835	     -3.05485882	     -4.31761237	     32.72504045	    -11.84026163	      1.00228261	     55.57199017	     55.57199017	     12.21663569	    -18.96614231	     15.81610050	    -10.07934182	      7.23922632	      3.76004405	     16.36074448	    -16.45720718	     -7.11587628	     38.87983238	     45.68686988	      0.00000000	      0.00000000	      5.34539736	     -7.74350173	      3.65639018	     44.21138434	     46.01062718	      0.00000000	      0.00000000
     16.05457143	     -2.09738151	     -5.41051942	      7.75649371	      1.11523858	      0.93280770	      0.46846396	      7.05571908	      3.88928180	    -19.53867163	     14.44225238	     14.44225238	     10.78326365	     -3.03163382	     -4.38943430	     33.54130206	    -11.45649935	      0.93590044	     52.68129890	     52.68129890	     11.93465158	    -18.89094006	     16.08673785	    -10.15293937	      7.02551027	      4.10585033	     18.56697900	    -16.98210629	     -7.14399886	     40.14104358	     45.65594386	      0.00000000	      0.00000000	      4.04435908	     -7.63325580	      3.82976641	     42.57520930	     45.96831704	      0.00000000	      0.00000000
     16.06571429	     -2.09108904	     -5.41569035	      8.03681605	      1.11404173	      0.93270809	      0.46830664	      6.16181784	      4.06231800	    -19.83519541	     13.77241733	     13.77241733	     11.00155811	     -2.58025254	     -4.71576731	     34.04611033	    -11.09098507	      0.92818157	     49.41827887	     49.41827887	     11.06120053	    -18.74784310	     15.16438841	    -10.18671458	      7.04021993	      4.33295393	     20.34132270	    -17.72212137	     -6.12610067	     42.87860636	     45.51945610	      0.00000000	      0.00000000	      4.46868971	     -7.02408750	      3.87281465	     35.90337372	     45.94537785	      0.00000000	      0.00000000
     16.07685714	     -2.14944149	     -5.37253617	      8.24385115	      1.11282703	      0.93239797	      0.46812888	      5.40235164	      4.18458137	    -19.90060409	     13.22923780	     13.22923780	     11.31009678	     -2.43274077	     -4.76476592	     34.49531634	    -10.59135986	      1.03615081	     46.07095552	     46.07095552	     10.62024616	    -18.49930728	     15.33214353	    -10.26481812	      6.89319958	      4.19118408	     22.66869352	    -17.90102393	     -6.19007960	     44.69519676	     45.47121606	      0.00000000	      0.00000000	      2.99129035	     -7.15025536	      3.92506640	     34.31068297	     45.91178201	      0.00000000	      0.00000000
     16.08800000	     -2.28335730	     -5.33012522	      8.40298921	      1.11164047	      0.93192339	      0.46789556	      4.68539014	      4.29205715	    -20.00331221	     12.62189883	     12.62189883	     11.60990787	     -2.09283900	     -4.85844211	     34.87923720	    -10.06868931	      1.18833910	     42.56516779	     42.56516779	     10.12937440	    -18.00744852	     15.30574623	    -10.24560873	      6.73539120	      4.11861409	     24.91007611	    -18.10718068	     -6.18579821	     46.53222460	     45.41842380	      0.00000000	      0.00000000	      1.61711319	     -7.23601809	      3.98011619	     32.57077029	     45.87969344	      0.00000000	      0.00000000
     16.09914286	     -2.41771103	     -5.34568054	      8.56427601	      1.11054055	      0.93129689	      0.46754895	      3.93065587	      4.45967569	    -20.20854874	     11.94424272	     11.94424272	     11.91598265	     -1.56341232	     -5.00870237	     35.16195095	     -9.59832630	      1.41272696	     38.97261368	     38.97261368	      9.62652479	    -17.16189413	     14.87078015	    -10.21344427	      6.65189677	      3.97952328	     27.08820484	    -18.25078905	     -6.07918764	     48.69350948	     45.34946602	      0.00000000	      0.00000000	      0.28939814	     -7.31809166	      4.01247990	     30.59810487	     45.85232375	      0.00000000	      0.00000000
     16.11028571	     -2.56243879	     -5.44990871	      8.69120616	      1.10963610	      0.93043156	      0.46710870	      3.17754728	      4.67775997	    -20.69591355	     11.27195030	     11.27195030	     12.22514584	     -0.52145430	     -5.49119802	     35.26628268	     -9.28793220	      1.54768803	     35.13471210	     35.13471210	      7.97611201	    -16.10273500	     11.11332407	    -10.12808525	      6.68204088	      4.66112866	     28.01419961	    -19.49044279	     -5.18215971	     53.00292993	     45.18022589	      0.00000000	      0.00000000	      0.02493092	     -6.96405519	      3.56892295	     26.89935669	     45.91319530	      0.00000000	      0.00000000
     16.12142857	     -2.77814770	     -5.44568706	      8.75657180	      1.10877268	      0.92950823	      0.46667917	      2.51006970	      4.82823828	    -20.63879734	     10.62602681	     10.62602681	     12.56184167	     -0.28023963	     -5.52598621	     35.42434919	     -8.87064224	      1.67791957	     31.60943997	     31.60943997	      7.88314514	    -14.31247425	     11.22351164	     -9.96382411	      6.53239398	      4.59964904	     30.20991287	    -19.51040255	     -5.38728570	     54.73007021	     45.14304357	      0.00000000	      0.00000000	     -1.61627954	     -7.20130489	      3.52300228	     26.01995146	     45.88966604	      0.00000000	      0.00000000
